<?xml version="1.0" encoding="UTF-8"?>
<svg xmlns="http://www.w3.org/2000/svg" xmlns:xlink="http://www.w3.org/1999/xlink" id="Layer_2" data-name="Layer 2" viewBox="0 0 826.88 274.58">
  <defs>
    <style>
      .cls-1 {
        fill: #fff;
      }

      .cls-2 {
        fill: #203c76;
      }

      .cls-3 {
        fill: url(#linear-gradient);
      }
    </style>
    <linearGradient id="linear-gradient" x1="320.52" y1="61.65" x2="497.06" y2="61.65" gradientUnits="userSpaceOnUse">
      <stop offset="0" stop-color="#f15022"></stop>
      <stop offset="1" stop-color="#f68f1e"></stop>
    </linearGradient>
  </defs>
  <g id="Layer_1-2" data-name="Layer 1">
    <g id="_000000ff" data-name="#000000ff">
      <path class="cls-3" d="m322.38,119.7c28.78-39.91,57.77-79.67,86.41-119.7,25.44,35.61,51.26,70.95,76.85,106.45,3.73,5.66,8.54,10.65,11.43,16.83-12.15.07-24.3-.01-36.45.02-7.65-10.56-15.23-21.16-22.94-31.67-6.44-8.87-16.57-15.57-27.72-16.07-12.01-.46-23.23,6.61-30.09,16.13-7.71,10.49-15.28,21.09-22.94,31.61-12.14-.05-24.28.04-36.4-.04.53-1.24,1.15-2.44,1.86-3.57Z"></path>
    </g>
    <g id="_203c76ff" data-name="#203c76ff">
      <path class="cls-2" d="m369.68,150.04c6.78-10.53,18.52-17.27,30.82-18.98,11.97-1.57,24.4-.74,35.82,3.37-1.7,5.72-3.05,11.56-4.11,17.44-9.17-2.47-18.93-3.91-28.33-1.92-10.4,2.36-18.05,11.68-20.19,21.88-2.84,13.49-2.92,28.58,4.15,40.84,3.79,6.9,11.06,11.54,18.71,12.93,9.16,1.41,18.9.35,26.99-4.39,1.04,5.88,2.94,11.56,4.14,17.41-8.64,5.33-18.98,6.01-28.86,6.52-10.14-.47-20.72-2.36-29.02-8.57-12.07-8.48-17.94-23.26-19.5-37.49-1.74-16.68-.46-34.86,9.38-49.04Z"></path>
      <path class="cls-2" d="m.04,132.16c16.68-.92,33.69-3.02,50.18.66,12.98,2.87,24.86,11.41,30.31,23.75,6.84,15.42,7.11,33.16,3.6,49.47-3.08,13.91-12.26,26.52-25.3,32.6-18.29,9.1-39.28,5.18-58.82,4.59.1-37.02.01-74.04.04-111.07m21.01,18.1c.13,24.93.1,49.86.01,74.79,10.68,1.24,22.83,1.77,31.49-5.74,4.5-3.09,6.36-8.35,8.93-12.77,3-12.01,3.79-24.84.35-36.85-2.73-9.16-10.11-17.03-19.6-19.12-7-1.27-14.14-.64-21.19-.3Z"></path>
      <path class="cls-2" d="m618.01,132.17c7.13-3.86,19.82-.53,19.78,8.93.83,5.5-4.37,9.93-9.41,10.63-5.56,1.19-12.73-.35-15.29-5.97-2.52-4.95.27-11.08,4.92-13.59Z"></path>
      <path class="cls-2" d="m182.84,136.13c.05-1.36.33-2.68.86-3.93,6.46.3,12.91.12,19.37.13.22,29.06-.12,58.11.17,87.17-.29,3.15,1.45,5.8,3.68,7.83,3.61-.02,7.26-.18,10.59-1.68.37,5.37,1.65,10.64,1.64,16.05-9.24,3.06-19.98,5.3-29.14.86-6.32-3.03-6.94-10.88-7.13-17.03-.05-29.79.02-59.59-.04-89.4Z"></path>
      <path class="cls-2" d="m790.71,132.59c6.56-.04,13.14-.12,19.7.14.47,28.55,0,57.11.23,85.66-.08,3.22,1.17,6.21,2.71,8.97,3.91.12,7.89.01,11.62-1.36.48,5.18,1.11,10.33,1.89,15.47-6.96,2.32-14.26,3.72-21.62,3.39-4.07-.45-8.23-1.8-11.02-4.94-2.46-3.93-3.58-8.55-3.52-13.16,0-31.4.01-62.78,0-94.16Z"></path>
      <path class="cls-2" d="m231.72,148.97c6.73-1.52,13.3-3.68,19.93-5.56-.12,7,.08,14.01-.14,21.01,6.5-.24,13.01.02,19.51-.21-.17,5.66-.1,11.32-.08,16.99-6.46-.07-12.91-.02-19.35-.04.57,14.01-1.17,28.17,1.28,42.06,3.73,6.58,11.9,3.33,17.75,2.39.83,4.98,2.3,9.85,3,14.87-8.75,3.45-18.39,5.68-27.76,3.86-4.55-.84-8.97-3.44-11.17-7.6-2.41-4.54-3.05-9.77-2.98-14.84.06-13.57-.05-27.14.06-40.71-3.63-.04-7.28-.04-10.91.01-.01-5.66.07-11.33-.1-16.99,3.64.12,7.29.12,10.93.08.04-5.12.02-10.22.04-15.32Z"></path>
      <path class="cls-2" d="m658.86,149c6.72-1.57,13.31-3.66,19.95-5.59-.1,6.95-.06,13.91-.04,20.86,6.47.02,12.93.11,19.39-.07-.21,5.7,0,11.39-.19,17.09-6.42-.25-12.84-.11-19.26-.11.17,11.21-.11,22.43.12,33.65.69,4.27.46,10.28,5.35,12.05,4.57,1.11,9.3-.13,13.43-2.17.83,5.32,2.65,10.45,3.09,15.83-9.04,3.48-19.02,5.79-28.64,3.58-3.86-1.01-7.69-3.14-9.71-6.7-2.75-4.68-3.52-10.21-3.49-15.55.01-13.57-.05-27.15.05-40.72-3.64-.01-7.28-.01-10.91.05-.01-5.67.07-11.34-.1-17,3.68.08,7.37.1,11.06.21-.18-5.13-.11-10.27-.1-15.41Z"></path>
      <path class="cls-2" d="m101.67,182.35c3.61-9.52,12.27-16.81,22.19-19,9.5-2.24,20.01-2.17,28.91,2.2,7.83,3.62,12.69,11.89,13.86,20.22,1.16,7.51.47,15.15-.77,22.61-15.88-.12-31.76.04-47.64-.08.01,7.77,3.14,16.81,11.22,19.41,9.63,2.63,20.46,1.21,28.71-4.6,2.08,4.45,4.37,8.81,6.66,13.15-13.01,8.66-30.01,10.98-44.95,6.56-9.82-2.91-16.57-11.79-19.32-21.33-3.52-12.73-3.55-26.69,1.12-39.14m28.46-3.87c-7.7,1.97-10.86,10.46-11.64,17.57,10.09-.04,20.16-.04,30.24,0,0-4.98.1-10.62-3.62-14.47-3.63-4.38-9.93-4.04-14.97-3.1Z"></path>
      <path class="cls-2" d="m283.6,168.5c10.67-4.21,22.13-5.9,33.56-6.06,7.44.4,15.6,1.32,21.18,6.84,6.01,5.8,6.42,14.67,6.71,22.5-.76,17.09-2.27,34.38.92,51.32-5.21-.08-10.44-.07-15.66-.05-1.1-3.87-2.33-7.7-3.48-11.55-4.11,4.38-8.19,9.41-14.2,11.16-8.77,2.56-19.38,2.06-26.47-4.27-8.17-6.93-9.53-19.82-4.46-28.95,5-7.89,14.43-11.21,23.25-12.48,6.6-1.07,13.31-1.21,19.98-.95.12-3.72.39-7.51-.43-11.16-.95-3.15-4.16-5.25-7.35-5.51-9.75-1.03-19.53.82-28.77,3.92-1.58-4.92-3.03-9.89-4.77-14.77m19.64,43.14c-5.54,3.32-4.19,12.95,1.83,14.93,7.14,2.53,15.46-.82,19.32-7.24.77-3.6.24-7.35.35-11-7.22-.36-15.15-.66-21.5,3.32Z"></path>
      <path class="cls-2" d="m448.6,168.5c10.67-4.21,22.13-5.9,33.56-6.06,7.44.4,15.6,1.32,21.18,6.84,6.01,5.8,6.42,14.67,6.71,22.5-.76,17.09-2.27,34.38.92,51.32-5.21-.08-10.44-.07-15.66-.05-1.1-3.87-2.33-7.7-3.48-11.55-4.11,4.38-8.19,9.41-14.2,11.16-8.77,2.56-19.38,2.06-26.47-4.27-8.17-6.93-9.53-19.82-4.46-28.95,5-7.89,14.43-11.21,23.25-12.48,6.6-1.07,13.31-1.21,19.98-.95.12-3.72.39-7.51-.43-11.16-.95-3.15-4.16-5.25-7.35-5.51-9.75-1.03-19.53.82-28.77,3.92-1.58-4.92-3.03-9.89-4.77-14.77m19.64,43.14c-5.54,3.32-4.19,12.95,1.83,14.93,7.14,2.53,15.46-.82,19.32-7.24.77-3.6.24-7.35.35-11-7.22-.36-15.15-.66-21.5,3.32Z"></path>
      <path class="cls-2" d="m557.87,163.71c8.45-2.71,18.05-2.53,26.09,1.4,7,3.58,11.27,10.82,12.92,18.32,2.75,12.61,2.85,26.04-1.17,38.38-2.94,8.95-9.45,16.88-18.26,20.51-9.34,3.5-19.98,3.82-29.26-.06-.02,10.76-.06,21.54.02,32.31-6.78-.1-13.56.01-20.34-.08.02-36.72.1-73.43-.04-110.15,4.96-.05,9.93-.02,14.9-.06.71,3.25,1.47,6.49,2.4,9.69,3.64-4.07,7.41-8.41,12.73-10.26m-5.02,18.96c-2.47,2.84-4.85,6.31-4.68,10.26.01,10.5-.04,21.01.05,31.52,1.39.83,2.79,1.68,4.17,2.55,7.08,2.38,16.13,1.48,20.9-4.84,4.9-7.54,5.01-17,4.66-25.68-.75-6.25-2.4-13.91-8.9-16.59-5.31-1.62-12.17-1.64-16.19,2.79Z"></path>
      <path class="cls-2" d="m710.81,168.53c10.61-4.24,22.02-5.9,33.39-6.08,7.49.39,15.72,1.25,21.31,6.84,6.33,6.07,6.67,15.49,6.77,23.69-.75,11.21-1.25,22.45-.94,33.69.16,5.54.57,11.22,2.7,16.41-5.47-.04-10.93-.07-16.4.07-1.3-3.85-2.38-7.77-3.62-11.64-3.93,4.11-7.67,8.87-13.21,10.85-8.54,2.8-18.8,2.59-26.24-2.91-9.3-6.87-11.2-21.13-5.19-30.72,5.09-7.35,14.11-10.45,22.59-11.72,6.65-1.09,13.41-1.24,20.14-.98.12-3.89.45-7.87-.52-11.68-1.29-2.81-4.21-4.83-7.31-5.02-9.74-.95-19.53.78-28.72,3.97-1.54-4.95-2.91-9.93-4.74-14.77m19.52,43.2c-5.39,3.38-3.99,12.84,1.93,14.83,7.13,2.56,15.47-.8,19.34-7.2.78-3.61.24-7.36.35-11.03-7.25-.36-15.28-.69-21.62,3.4Z"></path>
      <path class="cls-2" d="m615.31,164.21c6.7.16,13.39.16,20.1,0-.22,26.26-.07,52.52-.08,78.78-6.65-.11-13.3-.12-19.95.01-.01-26.27.14-52.54-.07-78.79Z"></path>
    </g>
    <g id="_ffffffff" data-name="#ffffffff">
      <path class="cls-1" d="m640.28,175.47c5.26-3.39,11.91-3.12,17.92-2.82-.09,3.04.36,6.15-.29,9.14-3.21,5.31-10.12,8.09-16.03,5.97-4.91-1.65-6.07-9.49-1.6-12.29Z"></path>
    </g>
  </g>
</svg>
